<mxfile host="app.diagrams.net" agent="Mozilla/5.0 (Windows NT 10.0; Win64; x64) AppleWebKit/537.36 (KHTML, like Gecko) Chrome/130.0.0.0 Safari/537.36 Edg/130.0.0.0" version="24.8.4">
  <diagram name="Page-1" id="thldua14ZTXM0ZRRVlnX">
    <mxGraphModel dx="1434" dy="827" grid="0" gridSize="10" guides="1" tooltips="1" connect="1" arrows="1" fold="1" page="1" pageScale="1" pageWidth="1654" pageHeight="2336" math="0" shadow="0">
      <root>
        <mxCell id="0" />
        <mxCell id="1" parent="0" />
        <mxCell id="zrPP4EijBJYdfeZ9ZNH7-3" value="" style="ellipse;whiteSpace=wrap;html=1;aspect=fixed;" vertex="1" parent="1">
          <mxGeometry x="350" y="100" width="30" height="30" as="geometry" />
        </mxCell>
        <mxCell id="zrPP4EijBJYdfeZ9ZNH7-4" value="" style="endArrow=classic;html=1;rounded=0;entryX=0.5;entryY=0;entryDx=0;entryDy=0;" edge="1" parent="1" target="zrPP4EijBJYdfeZ9ZNH7-3">
          <mxGeometry width="50" height="50" relative="1" as="geometry">
            <mxPoint x="365" y="70" as="sourcePoint" />
            <mxPoint x="565" as="targetPoint" />
          </mxGeometry>
        </mxCell>
        <mxCell id="zrPP4EijBJYdfeZ9ZNH7-5" value="Start" style="text;html=1;align=center;verticalAlign=middle;whiteSpace=wrap;rounded=0;" vertex="1" parent="1">
          <mxGeometry x="335" y="40" width="60" height="30" as="geometry" />
        </mxCell>
        <mxCell id="zrPP4EijBJYdfeZ9ZNH7-6" value="" style="endArrow=classic;html=1;rounded=0;entryX=0.5;entryY=0;entryDx=0;entryDy=0;exitX=0.5;exitY=1;exitDx=0;exitDy=0;" edge="1" parent="1" source="zrPP4EijBJYdfeZ9ZNH7-3">
          <mxGeometry width="50" height="50" relative="1" as="geometry">
            <mxPoint x="400" y="280" as="sourcePoint" />
            <mxPoint x="365" y="180" as="targetPoint" />
          </mxGeometry>
        </mxCell>
        <mxCell id="zrPP4EijBJYdfeZ9ZNH7-7" style="edgeStyle=orthogonalEdgeStyle;rounded=0;orthogonalLoop=1;jettySize=auto;html=1;entryX=0;entryY=0.5;entryDx=0;entryDy=0;" edge="1" parent="1" source="zrPP4EijBJYdfeZ9ZNH7-9" target="zrPP4EijBJYdfeZ9ZNH7-17">
          <mxGeometry relative="1" as="geometry">
            <mxPoint x="305" y="210" as="targetPoint" />
            <Array as="points">
              <mxPoint x="260" y="375" />
              <mxPoint x="260" y="210" />
            </Array>
          </mxGeometry>
        </mxCell>
        <mxCell id="zrPP4EijBJYdfeZ9ZNH7-8" style="edgeStyle=orthogonalEdgeStyle;rounded=0;orthogonalLoop=1;jettySize=auto;html=1;entryX=0.5;entryY=0;entryDx=0;entryDy=0;" edge="1" parent="1" source="zrPP4EijBJYdfeZ9ZNH7-9" target="zrPP4EijBJYdfeZ9ZNH7-13">
          <mxGeometry relative="1" as="geometry" />
        </mxCell>
        <mxCell id="zrPP4EijBJYdfeZ9ZNH7-9" value="Kiểm tra dữ liệu đầu vào" style="rhombus;whiteSpace=wrap;html=1;" vertex="1" parent="1">
          <mxGeometry x="290" y="310" width="150" height="130" as="geometry" />
        </mxCell>
        <mxCell id="zrPP4EijBJYdfeZ9ZNH7-10" value="" style="endArrow=classic;html=1;rounded=0;entryX=0.5;entryY=0;entryDx=0;entryDy=0;exitX=0.5;exitY=1;exitDx=0;exitDy=0;" edge="1" parent="1" target="zrPP4EijBJYdfeZ9ZNH7-9">
          <mxGeometry width="50" height="50" relative="1" as="geometry">
            <mxPoint x="365" y="240" as="sourcePoint" />
            <mxPoint x="450" y="330" as="targetPoint" />
          </mxGeometry>
        </mxCell>
        <mxCell id="zrPP4EijBJYdfeZ9ZNH7-11" value="không hợp lệ" style="text;html=1;align=center;verticalAlign=middle;whiteSpace=wrap;rounded=0;" vertex="1" parent="1">
          <mxGeometry x="190" y="260" width="60" height="30" as="geometry" />
        </mxCell>
        <mxCell id="zrPP4EijBJYdfeZ9ZNH7-12" style="edgeStyle=orthogonalEdgeStyle;rounded=0;orthogonalLoop=1;jettySize=auto;html=1;entryX=0.5;entryY=0;entryDx=0;entryDy=0;" edge="1" parent="1" source="zrPP4EijBJYdfeZ9ZNH7-13" target="zrPP4EijBJYdfeZ9ZNH7-15">
          <mxGeometry relative="1" as="geometry" />
        </mxCell>
        <mxCell id="zrPP4EijBJYdfeZ9ZNH7-13" value="Chuyển đến trang chủ" style="rounded=1;whiteSpace=wrap;html=1;" vertex="1" parent="1">
          <mxGeometry x="305" y="510" width="120" height="60" as="geometry" />
        </mxCell>
        <mxCell id="zrPP4EijBJYdfeZ9ZNH7-14" value="Hợp lệ" style="text;html=1;align=center;verticalAlign=middle;whiteSpace=wrap;rounded=0;" vertex="1" parent="1">
          <mxGeometry x="290" y="460" width="60" height="30" as="geometry" />
        </mxCell>
        <mxCell id="zrPP4EijBJYdfeZ9ZNH7-15" value="" style="ellipse;html=1;shape=endState;fillColor=#000000;strokeColor=#ff0000;" vertex="1" parent="1">
          <mxGeometry x="350" y="640" width="30" height="30" as="geometry" />
        </mxCell>
        <mxCell id="zrPP4EijBJYdfeZ9ZNH7-16" value="End" style="text;html=1;align=center;verticalAlign=middle;whiteSpace=wrap;rounded=0;" vertex="1" parent="1">
          <mxGeometry x="335" y="690" width="60" height="30" as="geometry" />
        </mxCell>
        <mxCell id="zrPP4EijBJYdfeZ9ZNH7-17" value="Nhập email và mật khẩu" style="shape=parallelogram;perimeter=parallelogramPerimeter;whiteSpace=wrap;html=1;fixedSize=1;" vertex="1" parent="1">
          <mxGeometry x="280" y="180" width="170" height="60" as="geometry" />
        </mxCell>
        <mxCell id="zrPP4EijBJYdfeZ9ZNH7-18" value="Đăng nhập:" style="text;html=1;align=center;verticalAlign=middle;resizable=0;points=[];autosize=1;strokeColor=none;fillColor=none;" vertex="1" parent="1">
          <mxGeometry x="110" y="40" width="80" height="26" as="geometry" />
        </mxCell>
        <mxCell id="zrPP4EijBJYdfeZ9ZNH7-19" value="" style="ellipse;whiteSpace=wrap;html=1;aspect=fixed;" vertex="1" parent="1">
          <mxGeometry x="843" y="100" width="30" height="30" as="geometry" />
        </mxCell>
        <mxCell id="zrPP4EijBJYdfeZ9ZNH7-20" value="" style="endArrow=classic;html=1;rounded=0;entryX=0.5;entryY=0;entryDx=0;entryDy=0;" edge="1" parent="1" target="zrPP4EijBJYdfeZ9ZNH7-19">
          <mxGeometry width="50" height="50" relative="1" as="geometry">
            <mxPoint x="858" y="70" as="sourcePoint" />
            <mxPoint x="1058" as="targetPoint" />
          </mxGeometry>
        </mxCell>
        <mxCell id="zrPP4EijBJYdfeZ9ZNH7-21" value="Start" style="text;html=1;align=center;verticalAlign=middle;whiteSpace=wrap;rounded=0;" vertex="1" parent="1">
          <mxGeometry x="828" y="40" width="60" height="30" as="geometry" />
        </mxCell>
        <mxCell id="zrPP4EijBJYdfeZ9ZNH7-22" value="" style="endArrow=classic;html=1;rounded=0;entryX=0.5;entryY=0;entryDx=0;entryDy=0;exitX=0.5;exitY=1;exitDx=0;exitDy=0;" edge="1" parent="1" source="zrPP4EijBJYdfeZ9ZNH7-19">
          <mxGeometry width="50" height="50" relative="1" as="geometry">
            <mxPoint x="893" y="280" as="sourcePoint" />
            <mxPoint x="858" y="180" as="targetPoint" />
          </mxGeometry>
        </mxCell>
        <mxCell id="zrPP4EijBJYdfeZ9ZNH7-23" style="edgeStyle=orthogonalEdgeStyle;rounded=0;orthogonalLoop=1;jettySize=auto;html=1;entryX=0;entryY=0.5;entryDx=0;entryDy=0;" edge="1" parent="1" source="zrPP4EijBJYdfeZ9ZNH7-25" target="zrPP4EijBJYdfeZ9ZNH7-33">
          <mxGeometry relative="1" as="geometry">
            <mxPoint x="798" y="210" as="targetPoint" />
            <Array as="points">
              <mxPoint x="753" y="375" />
              <mxPoint x="753" y="210" />
            </Array>
          </mxGeometry>
        </mxCell>
        <mxCell id="zrPP4EijBJYdfeZ9ZNH7-24" style="edgeStyle=orthogonalEdgeStyle;rounded=0;orthogonalLoop=1;jettySize=auto;html=1;entryX=0.5;entryY=0;entryDx=0;entryDy=0;" edge="1" parent="1" source="zrPP4EijBJYdfeZ9ZNH7-25" target="zrPP4EijBJYdfeZ9ZNH7-29">
          <mxGeometry relative="1" as="geometry" />
        </mxCell>
        <mxCell id="zrPP4EijBJYdfeZ9ZNH7-25" value="Kiểm tra dữ liệu đầu vào" style="rhombus;whiteSpace=wrap;html=1;" vertex="1" parent="1">
          <mxGeometry x="783" y="310" width="150" height="130" as="geometry" />
        </mxCell>
        <mxCell id="zrPP4EijBJYdfeZ9ZNH7-26" value="" style="endArrow=classic;html=1;rounded=0;entryX=0.5;entryY=0;entryDx=0;entryDy=0;exitX=0.5;exitY=1;exitDx=0;exitDy=0;" edge="1" parent="1" target="zrPP4EijBJYdfeZ9ZNH7-25">
          <mxGeometry width="50" height="50" relative="1" as="geometry">
            <mxPoint x="858" y="240" as="sourcePoint" />
            <mxPoint x="943" y="330" as="targetPoint" />
          </mxGeometry>
        </mxCell>
        <mxCell id="zrPP4EijBJYdfeZ9ZNH7-27" value="không hợp lệ" style="text;html=1;align=center;verticalAlign=middle;whiteSpace=wrap;rounded=0;" vertex="1" parent="1">
          <mxGeometry x="683" y="260" width="60" height="30" as="geometry" />
        </mxCell>
        <mxCell id="zrPP4EijBJYdfeZ9ZNH7-28" style="edgeStyle=orthogonalEdgeStyle;rounded=0;orthogonalLoop=1;jettySize=auto;html=1;entryX=0.5;entryY=0;entryDx=0;entryDy=0;" edge="1" parent="1" source="zrPP4EijBJYdfeZ9ZNH7-29" target="zrPP4EijBJYdfeZ9ZNH7-31">
          <mxGeometry relative="1" as="geometry" />
        </mxCell>
        <mxCell id="zrPP4EijBJYdfeZ9ZNH7-29" value="Chuyển đến trang đăng nhập" style="rounded=1;whiteSpace=wrap;html=1;" vertex="1" parent="1">
          <mxGeometry x="798" y="510" width="120" height="60" as="geometry" />
        </mxCell>
        <mxCell id="zrPP4EijBJYdfeZ9ZNH7-30" value="Hợp lệ" style="text;html=1;align=center;verticalAlign=middle;whiteSpace=wrap;rounded=0;" vertex="1" parent="1">
          <mxGeometry x="783" y="460" width="60" height="30" as="geometry" />
        </mxCell>
        <mxCell id="zrPP4EijBJYdfeZ9ZNH7-31" value="" style="ellipse;html=1;shape=endState;fillColor=#000000;strokeColor=#ff0000;" vertex="1" parent="1">
          <mxGeometry x="843" y="640" width="30" height="30" as="geometry" />
        </mxCell>
        <mxCell id="zrPP4EijBJYdfeZ9ZNH7-32" value="End" style="text;html=1;align=center;verticalAlign=middle;whiteSpace=wrap;rounded=0;" vertex="1" parent="1">
          <mxGeometry x="828" y="690" width="60" height="30" as="geometry" />
        </mxCell>
        <mxCell id="zrPP4EijBJYdfeZ9ZNH7-33" value="&amp;nbsp; &amp;nbsp; &amp;nbsp;Nhập họ, tên, mssv, ngày sinh,&amp;nbsp; &amp;nbsp; &amp;nbsp; email, mật khẩu và xác nhận mật khẩu" style="shape=parallelogram;perimeter=parallelogramPerimeter;whiteSpace=wrap;html=1;fixedSize=1;" vertex="1" parent="1">
          <mxGeometry x="773" y="180" width="201" height="59" as="geometry" />
        </mxCell>
        <mxCell id="zrPP4EijBJYdfeZ9ZNH7-34" value="Đăng ký:" style="text;html=1;align=center;verticalAlign=middle;resizable=0;points=[];autosize=1;strokeColor=none;fillColor=none;" vertex="1" parent="1">
          <mxGeometry x="618" y="40" width="65" height="26" as="geometry" />
        </mxCell>
        <mxCell id="zrPP4EijBJYdfeZ9ZNH7-35" value="" style="ellipse;whiteSpace=wrap;html=1;aspect=fixed;" vertex="1" parent="1">
          <mxGeometry x="1376" y="100" width="30" height="30" as="geometry" />
        </mxCell>
        <mxCell id="zrPP4EijBJYdfeZ9ZNH7-36" value="" style="endArrow=classic;html=1;rounded=0;entryX=0.5;entryY=0;entryDx=0;entryDy=0;" edge="1" parent="1" target="zrPP4EijBJYdfeZ9ZNH7-35">
          <mxGeometry width="50" height="50" relative="1" as="geometry">
            <mxPoint x="1391" y="70" as="sourcePoint" />
            <mxPoint x="1591" as="targetPoint" />
          </mxGeometry>
        </mxCell>
        <mxCell id="zrPP4EijBJYdfeZ9ZNH7-37" value="Start" style="text;html=1;align=center;verticalAlign=middle;whiteSpace=wrap;rounded=0;" vertex="1" parent="1">
          <mxGeometry x="1361" y="40" width="60" height="30" as="geometry" />
        </mxCell>
        <mxCell id="zrPP4EijBJYdfeZ9ZNH7-38" value="" style="endArrow=classic;html=1;rounded=0;entryX=0.5;entryY=0;entryDx=0;entryDy=0;exitX=0.5;exitY=1;exitDx=0;exitDy=0;" edge="1" parent="1" source="zrPP4EijBJYdfeZ9ZNH7-35">
          <mxGeometry width="50" height="50" relative="1" as="geometry">
            <mxPoint x="1426" y="280" as="sourcePoint" />
            <mxPoint x="1391" y="180" as="targetPoint" />
          </mxGeometry>
        </mxCell>
        <mxCell id="zrPP4EijBJYdfeZ9ZNH7-39" style="edgeStyle=orthogonalEdgeStyle;rounded=0;orthogonalLoop=1;jettySize=auto;html=1;entryX=0;entryY=0.5;entryDx=0;entryDy=0;" edge="1" parent="1" source="zrPP4EijBJYdfeZ9ZNH7-41" target="zrPP4EijBJYdfeZ9ZNH7-49">
          <mxGeometry relative="1" as="geometry">
            <mxPoint x="1331" y="210" as="targetPoint" />
            <Array as="points">
              <mxPoint x="1286" y="375" />
              <mxPoint x="1286" y="210" />
            </Array>
          </mxGeometry>
        </mxCell>
        <mxCell id="zrPP4EijBJYdfeZ9ZNH7-40" style="edgeStyle=orthogonalEdgeStyle;rounded=0;orthogonalLoop=1;jettySize=auto;html=1;entryX=0.5;entryY=0;entryDx=0;entryDy=0;" edge="1" parent="1" source="zrPP4EijBJYdfeZ9ZNH7-41" target="zrPP4EijBJYdfeZ9ZNH7-45">
          <mxGeometry relative="1" as="geometry" />
        </mxCell>
        <mxCell id="zrPP4EijBJYdfeZ9ZNH7-41" value="Kiểm tra dữ liệu đầu vào" style="rhombus;whiteSpace=wrap;html=1;" vertex="1" parent="1">
          <mxGeometry x="1316" y="310" width="150" height="130" as="geometry" />
        </mxCell>
        <mxCell id="zrPP4EijBJYdfeZ9ZNH7-42" value="" style="endArrow=classic;html=1;rounded=0;entryX=0.5;entryY=0;entryDx=0;entryDy=0;exitX=0.5;exitY=1;exitDx=0;exitDy=0;" edge="1" parent="1" target="zrPP4EijBJYdfeZ9ZNH7-41">
          <mxGeometry width="50" height="50" relative="1" as="geometry">
            <mxPoint x="1391" y="240" as="sourcePoint" />
            <mxPoint x="1476" y="330" as="targetPoint" />
          </mxGeometry>
        </mxCell>
        <mxCell id="zrPP4EijBJYdfeZ9ZNH7-43" value="không hợp lệ" style="text;html=1;align=center;verticalAlign=middle;whiteSpace=wrap;rounded=0;" vertex="1" parent="1">
          <mxGeometry x="1216" y="260" width="60" height="30" as="geometry" />
        </mxCell>
        <mxCell id="zrPP4EijBJYdfeZ9ZNH7-44" style="edgeStyle=orthogonalEdgeStyle;rounded=0;orthogonalLoop=1;jettySize=auto;html=1;entryX=0.5;entryY=0;entryDx=0;entryDy=0;" edge="1" parent="1" source="zrPP4EijBJYdfeZ9ZNH7-45" target="zrPP4EijBJYdfeZ9ZNH7-47">
          <mxGeometry relative="1" as="geometry" />
        </mxCell>
        <mxCell id="zrPP4EijBJYdfeZ9ZNH7-45" value="Reload dữ liệu đã chỉnh sửa" style="rounded=1;whiteSpace=wrap;html=1;" vertex="1" parent="1">
          <mxGeometry x="1331" y="510" width="120" height="60" as="geometry" />
        </mxCell>
        <mxCell id="zrPP4EijBJYdfeZ9ZNH7-46" value="Hợp lệ" style="text;html=1;align=center;verticalAlign=middle;whiteSpace=wrap;rounded=0;" vertex="1" parent="1">
          <mxGeometry x="1316" y="460" width="60" height="30" as="geometry" />
        </mxCell>
        <mxCell id="zrPP4EijBJYdfeZ9ZNH7-47" value="" style="ellipse;html=1;shape=endState;fillColor=#000000;strokeColor=#ff0000;" vertex="1" parent="1">
          <mxGeometry x="1376" y="640" width="30" height="30" as="geometry" />
        </mxCell>
        <mxCell id="zrPP4EijBJYdfeZ9ZNH7-48" value="End" style="text;html=1;align=center;verticalAlign=middle;whiteSpace=wrap;rounded=0;" vertex="1" parent="1">
          <mxGeometry x="1361" y="690" width="60" height="30" as="geometry" />
        </mxCell>
        <mxCell id="zrPP4EijBJYdfeZ9ZNH7-49" value="Sửa họ, tên, bios, giới tính hoặc ảnh đại diện" style="shape=parallelogram;perimeter=parallelogramPerimeter;whiteSpace=wrap;html=1;fixedSize=1;" vertex="1" parent="1">
          <mxGeometry x="1306" y="180" width="170" height="60" as="geometry" />
        </mxCell>
        <mxCell id="zrPP4EijBJYdfeZ9ZNH7-50" value="Chỉnh sửa hồ sơ" style="text;html=1;align=center;verticalAlign=middle;resizable=0;points=[];autosize=1;strokeColor=none;fillColor=none;" vertex="1" parent="1">
          <mxGeometry x="1067" y="46" width="107" height="26" as="geometry" />
        </mxCell>
      </root>
    </mxGraphModel>
  </diagram>
</mxfile>
